<?xml version='1.0' encoding='utf-8'?>
<svg xmlns:xlink="http://www.w3.org/1999/xlink" xmlns="http://www.w3.org/2000/svg" id="chart-86dffdfb-5c83-4744-a8c5-d81cdd70c37d" class="pygal-chart" viewBox="0 0 800 600"><!--Generated with pygal 2.4.0 (lxml) ©Kozea 2012-2016 on 2019-01-08--><!--http://pygal.org--><!--http://github.com/Kozea/pygal--><defs><style type="text/css">#chart-86dffdfb-5c83-4744-a8c5-d81cdd70c37d{-webkit-user-select:none;-webkit-font-smoothing:antialiased;font-family:Consolas,"Liberation Mono",Menlo,Courier,monospace}#chart-86dffdfb-5c83-4744-a8c5-d81cdd70c37d .title{font-family:Consolas,"Liberation Mono",Menlo,Courier,monospace;font-size:16px}#chart-86dffdfb-5c83-4744-a8c5-d81cdd70c37d .legends .legend text{font-family:Consolas,"Liberation Mono",Menlo,Courier,monospace;font-size:14px}#chart-86dffdfb-5c83-4744-a8c5-d81cdd70c37d .axis text{font-family:Consolas,"Liberation Mono",Menlo,Courier,monospace;font-size:10px}#chart-86dffdfb-5c83-4744-a8c5-d81cdd70c37d .axis text.major{font-family:Consolas,"Liberation Mono",Menlo,Courier,monospace;font-size:10px}#chart-86dffdfb-5c83-4744-a8c5-d81cdd70c37d .text-overlay text.value{font-family:Consolas,"Liberation Mono",Menlo,Courier,monospace;font-size:16px}#chart-86dffdfb-5c83-4744-a8c5-d81cdd70c37d .text-overlay text.label{font-family:Consolas,"Liberation Mono",Menlo,Courier,monospace;font-size:10px}#chart-86dffdfb-5c83-4744-a8c5-d81cdd70c37d .tooltip{font-family:Consolas,"Liberation Mono",Menlo,Courier,monospace;font-size:14px}#chart-86dffdfb-5c83-4744-a8c5-d81cdd70c37d text.no_data{font-family:Consolas,"Liberation Mono",Menlo,Courier,monospace;font-size:64px}
#chart-86dffdfb-5c83-4744-a8c5-d81cdd70c37d{background-color:black}#chart-86dffdfb-5c83-4744-a8c5-d81cdd70c37d path,#chart-86dffdfb-5c83-4744-a8c5-d81cdd70c37d line,#chart-86dffdfb-5c83-4744-a8c5-d81cdd70c37d rect,#chart-86dffdfb-5c83-4744-a8c5-d81cdd70c37d circle{-webkit-transition:250ms;-moz-transition:250ms;transition:250ms}#chart-86dffdfb-5c83-4744-a8c5-d81cdd70c37d .graph &gt; .background{fill:black}#chart-86dffdfb-5c83-4744-a8c5-d81cdd70c37d .plot &gt; .background{fill:#111}#chart-86dffdfb-5c83-4744-a8c5-d81cdd70c37d .graph{fill:#999}#chart-86dffdfb-5c83-4744-a8c5-d81cdd70c37d text.no_data{fill:#eee}#chart-86dffdfb-5c83-4744-a8c5-d81cdd70c37d .title{fill:#eee}#chart-86dffdfb-5c83-4744-a8c5-d81cdd70c37d .legends .legend text{fill:#999}#chart-86dffdfb-5c83-4744-a8c5-d81cdd70c37d .legends .legend:hover text{fill:#eee}#chart-86dffdfb-5c83-4744-a8c5-d81cdd70c37d .axis .line{stroke:#eee}#chart-86dffdfb-5c83-4744-a8c5-d81cdd70c37d .axis .guide.line{stroke:#555}#chart-86dffdfb-5c83-4744-a8c5-d81cdd70c37d .axis .major.line{stroke:#999}#chart-86dffdfb-5c83-4744-a8c5-d81cdd70c37d .axis text.major{fill:#eee}#chart-86dffdfb-5c83-4744-a8c5-d81cdd70c37d .axis.y .guides:hover .guide.line,#chart-86dffdfb-5c83-4744-a8c5-d81cdd70c37d .line-graph .axis.x .guides:hover .guide.line,#chart-86dffdfb-5c83-4744-a8c5-d81cdd70c37d .stackedline-graph .axis.x .guides:hover .guide.line,#chart-86dffdfb-5c83-4744-a8c5-d81cdd70c37d .xy-graph .axis.x .guides:hover .guide.line{stroke:#eee}#chart-86dffdfb-5c83-4744-a8c5-d81cdd70c37d .axis .guides:hover text{fill:#eee}#chart-86dffdfb-5c83-4744-a8c5-d81cdd70c37d .reactive{fill-opacity:.8;stroke-opacity:.8}#chart-86dffdfb-5c83-4744-a8c5-d81cdd70c37d .ci{stroke:#999}#chart-86dffdfb-5c83-4744-a8c5-d81cdd70c37d .reactive.active,#chart-86dffdfb-5c83-4744-a8c5-d81cdd70c37d .active .reactive{fill-opacity:.4;stroke-opacity:.9;stroke-width:4}#chart-86dffdfb-5c83-4744-a8c5-d81cdd70c37d .ci .reactive.active{stroke-width:1.5}#chart-86dffdfb-5c83-4744-a8c5-d81cdd70c37d .series text{fill:#eee}#chart-86dffdfb-5c83-4744-a8c5-d81cdd70c37d .tooltip rect{fill:#111;stroke:#eee;-webkit-transition:opacity 250ms;-moz-transition:opacity 250ms;transition:opacity 250ms}#chart-86dffdfb-5c83-4744-a8c5-d81cdd70c37d .tooltip .label{fill:#999}#chart-86dffdfb-5c83-4744-a8c5-d81cdd70c37d .tooltip .label{fill:#999}#chart-86dffdfb-5c83-4744-a8c5-d81cdd70c37d .tooltip .legend{font-size:.8em;fill:#555}#chart-86dffdfb-5c83-4744-a8c5-d81cdd70c37d .tooltip .x_label{font-size:.6em;fill:#eee}#chart-86dffdfb-5c83-4744-a8c5-d81cdd70c37d .tooltip .xlink{font-size:.5em;text-decoration:underline}#chart-86dffdfb-5c83-4744-a8c5-d81cdd70c37d .tooltip .value{font-size:1.5em}#chart-86dffdfb-5c83-4744-a8c5-d81cdd70c37d .bound{font-size:.5em}#chart-86dffdfb-5c83-4744-a8c5-d81cdd70c37d .max-value{font-size:.75em;fill:#555}#chart-86dffdfb-5c83-4744-a8c5-d81cdd70c37d .map-element{fill:#111;stroke:#555 !important}#chart-86dffdfb-5c83-4744-a8c5-d81cdd70c37d .map-element .reactive{fill-opacity:inherit;stroke-opacity:inherit}#chart-86dffdfb-5c83-4744-a8c5-d81cdd70c37d .color-0,#chart-86dffdfb-5c83-4744-a8c5-d81cdd70c37d .color-0 a:visited{stroke:#ff5995;fill:#ff5995}#chart-86dffdfb-5c83-4744-a8c5-d81cdd70c37d .color-1,#chart-86dffdfb-5c83-4744-a8c5-d81cdd70c37d .color-1 a:visited{stroke:#b6e354;fill:#b6e354}#chart-86dffdfb-5c83-4744-a8c5-d81cdd70c37d .text-overlay .color-0 text{fill:black}#chart-86dffdfb-5c83-4744-a8c5-d81cdd70c37d .text-overlay .color-1 text{fill:black}
#chart-86dffdfb-5c83-4744-a8c5-d81cdd70c37d text.no_data{text-anchor:middle}#chart-86dffdfb-5c83-4744-a8c5-d81cdd70c37d .guide.line{fill:none}#chart-86dffdfb-5c83-4744-a8c5-d81cdd70c37d .centered{text-anchor:middle}#chart-86dffdfb-5c83-4744-a8c5-d81cdd70c37d .title{text-anchor:middle}#chart-86dffdfb-5c83-4744-a8c5-d81cdd70c37d .legends .legend text{fill-opacity:1}#chart-86dffdfb-5c83-4744-a8c5-d81cdd70c37d .axis.x text{text-anchor:middle}#chart-86dffdfb-5c83-4744-a8c5-d81cdd70c37d .axis.x:not(.web) text[transform]{text-anchor:start}#chart-86dffdfb-5c83-4744-a8c5-d81cdd70c37d .axis.x:not(.web) text[transform].backwards{text-anchor:end}#chart-86dffdfb-5c83-4744-a8c5-d81cdd70c37d .axis.y text{text-anchor:end}#chart-86dffdfb-5c83-4744-a8c5-d81cdd70c37d .axis.y text[transform].backwards{text-anchor:start}#chart-86dffdfb-5c83-4744-a8c5-d81cdd70c37d .axis.y2 text{text-anchor:start}#chart-86dffdfb-5c83-4744-a8c5-d81cdd70c37d .axis.y2 text[transform].backwards{text-anchor:end}#chart-86dffdfb-5c83-4744-a8c5-d81cdd70c37d .axis .guide.line{stroke-dasharray:4,4}#chart-86dffdfb-5c83-4744-a8c5-d81cdd70c37d .axis .major.guide.line{stroke-dasharray:6,6}#chart-86dffdfb-5c83-4744-a8c5-d81cdd70c37d .horizontal .axis.y .guide.line,#chart-86dffdfb-5c83-4744-a8c5-d81cdd70c37d .horizontal .axis.y2 .guide.line,#chart-86dffdfb-5c83-4744-a8c5-d81cdd70c37d .vertical .axis.x .guide.line{opacity:0}#chart-86dffdfb-5c83-4744-a8c5-d81cdd70c37d .horizontal .axis.always_show .guide.line,#chart-86dffdfb-5c83-4744-a8c5-d81cdd70c37d .vertical .axis.always_show .guide.line{opacity:1 !important}#chart-86dffdfb-5c83-4744-a8c5-d81cdd70c37d .axis.y .guides:hover .guide.line,#chart-86dffdfb-5c83-4744-a8c5-d81cdd70c37d .axis.y2 .guides:hover .guide.line,#chart-86dffdfb-5c83-4744-a8c5-d81cdd70c37d .axis.x .guides:hover .guide.line{opacity:1}#chart-86dffdfb-5c83-4744-a8c5-d81cdd70c37d .axis .guides:hover text{opacity:1}#chart-86dffdfb-5c83-4744-a8c5-d81cdd70c37d .nofill{fill:none}#chart-86dffdfb-5c83-4744-a8c5-d81cdd70c37d .subtle-fill{fill-opacity:.2}#chart-86dffdfb-5c83-4744-a8c5-d81cdd70c37d .dot{stroke-width:1px;fill-opacity:1}#chart-86dffdfb-5c83-4744-a8c5-d81cdd70c37d .dot.active{stroke-width:5px}#chart-86dffdfb-5c83-4744-a8c5-d81cdd70c37d .dot.negative{fill:transparent}#chart-86dffdfb-5c83-4744-a8c5-d81cdd70c37d text,#chart-86dffdfb-5c83-4744-a8c5-d81cdd70c37d tspan{stroke:none !important}#chart-86dffdfb-5c83-4744-a8c5-d81cdd70c37d .series text.active{opacity:1}#chart-86dffdfb-5c83-4744-a8c5-d81cdd70c37d .tooltip rect{fill-opacity:.95;stroke-width:.5}#chart-86dffdfb-5c83-4744-a8c5-d81cdd70c37d .tooltip text{fill-opacity:1}#chart-86dffdfb-5c83-4744-a8c5-d81cdd70c37d .showable{visibility:hidden}#chart-86dffdfb-5c83-4744-a8c5-d81cdd70c37d .showable.shown{visibility:visible}#chart-86dffdfb-5c83-4744-a8c5-d81cdd70c37d .gauge-background{fill:rgba(229,229,229,1);stroke:none}#chart-86dffdfb-5c83-4744-a8c5-d81cdd70c37d .bg-lines{stroke:black;stroke-width:2px}</style><script type="text/javascript">window.pygal = window.pygal || {};window.pygal.config = window.pygal.config || {};window.pygal.config['86dffdfb-5c83-4744-a8c5-d81cdd70c37d'] = {"allow_interruptions": false, "box_mode": "extremes", "classes": ["pygal-chart"], "css": ["file://style.css", "file://graph.css"], "defs": [], "disable_xml_declaration": false, "dots_size": 2.5, "dynamic_print_values": false, "explicit_size": false, "fill": true, "force_uri_protocol": "https", "formatter": null, "half_pie": false, "height": 600, "include_x_axis": false, "inner_radius": 0, "interpolate": null, "interpolation_parameters": {}, "interpolation_precision": 250, "inverse_y_axis": false, "js": ["//kozea.github.io/pygal.js/2.0.x/pygal-tooltips.min.js"], "legend_at_bottom": true, "legend_at_bottom_columns": null, "legend_box_size": 12, "logarithmic": false, "margin": 20, "margin_bottom": null, "margin_left": null, "margin_right": null, "margin_top": null, "max_scale": 16, "min_scale": 4, "missing_value_fill_truncation": "x", "no_data_text": "No data", "no_prefix": false, "order_min": null, "pretty_print": false, "print_labels": false, "print_values": false, "print_values_position": "center", "print_zeroes": true, "range": null, "rounded_bars": null, "secondary_range": null, "show_dots": false, "show_legend": true, "show_minor_x_labels": true, "show_minor_y_labels": true, "show_only_major_dots": false, "show_x_guides": false, "show_x_labels": true, "show_y_guides": true, "show_y_labels": true, "spacing": 10, "stack_from_top": false, "strict": false, "stroke": true, "stroke_style": null, "style": {"background": "black", "ci_colors": [], "colors": ["#ff5995", "#b6e354", "#feed6c", "#8cedff", "#9e6ffe", "#899ca1", "#f8f8f2", "#bf4646", "#516083", "#f92672", "#82b414", "#fd971f", "#56c2d6", "#808384", "#8c54fe", "#465457"], "font_family": "Consolas, \"Liberation Mono\", Menlo, Courier, monospace", "foreground": "#999", "foreground_strong": "#eee", "foreground_subtle": "#555", "guide_stroke_dasharray": "4,4", "label_font_family": "Consolas, \"Liberation Mono\", Menlo, Courier, monospace", "label_font_size": 10, "legend_font_family": "Consolas, \"Liberation Mono\", Menlo, Courier, monospace", "legend_font_size": 14, "major_guide_stroke_dasharray": "6,6", "major_label_font_family": "Consolas, \"Liberation Mono\", Menlo, Courier, monospace", "major_label_font_size": 10, "no_data_font_family": "Consolas, \"Liberation Mono\", Menlo, Courier, monospace", "no_data_font_size": 64, "opacity": ".8", "opacity_hover": ".4", "plot_background": "#111", "stroke_opacity": ".8", "stroke_opacity_hover": ".9", "title_font_family": "Consolas, \"Liberation Mono\", Menlo, Courier, monospace", "title_font_size": 16, "tooltip_font_family": "Consolas, \"Liberation Mono\", Menlo, Courier, monospace", "tooltip_font_size": 14, "transition": "250ms", "value_background": "rgba(229, 229, 229, 1)", "value_colors": [], "value_font_family": "Consolas, \"Liberation Mono\", Menlo, Courier, monospace", "value_font_size": 16, "value_label_font_family": "Consolas, \"Liberation Mono\", Menlo, Courier, monospace", "value_label_font_size": 10}, "title": "Genome diversity in population with asexual reproduction over 499 generations. \n Quantity of original genes from the first generation in population ", "tooltip_border_radius": 0, "tooltip_fancy_mode": true, "truncate_label": null, "truncate_legend": null, "width": 800, "x_label_rotation": 0, "x_labels": null, "x_labels_major": null, "x_labels_major_count": null, "x_labels_major_every": null, "x_title": null, "xrange": null, "y_label_rotation": 0, "y_labels": null, "y_labels_major": null, "y_labels_major_count": null, "y_labels_major_every": null, "y_title": null, "zero": 0, "legends": ["Population size", "Diversity"]}</script><script type="text/javascript" xlink:href="https://kozea.github.io/pygal.js/2.0.x/pygal-tooltips.min.js"/></defs><title>Genome diversity in population with asexual reproduction over 499 generations. 
 Quantity of original genes from the first generation in population </title><g class="graph xy-graph vertical"><rect class="background" height="600" width="800" x="0" y="0"/><g class="plot" transform="translate(42, 98)"><rect class="background" height="417.0" width="738.0" x="0" y="0"/><g class="axis y always_show"><path class="line" d="M0.000000 417.000000 h738.000000"/><g class="guides"><path class="guide line" d="M0.000000 365.800296 h738.000000"/><text class="" x="-5" y="369.30029585798815">10</text><title>10</title></g><g class="guides"><path class="guide line" d="M0.000000 304.113905 h738.000000"/><text class="" x="-5" y="307.61390532544374">20</text><title>20</title></g><g class="guides"><path class="guide line" d="M0.000000 242.427515 h738.000000"/><text class="" x="-5" y="245.9275147928994">30</text><title>30</title></g><g class="guides"><path class="guide line" d="M0.000000 180.741124 h738.000000"/><text class="" x="-5" y="184.24112426035504">40</text><title>40</title></g><g class="guides"><path class="major guide line" d="M0.000000 119.054734 h738.000000"/><text class="major" x="-5" y="122.55473372781063">50</text><title>50</title></g><g class="guides"><path class="guide line" d="M0.000000 57.368343 h738.000000"/><text class="" x="-5" y="60.86834319526628">60</text><title>60</title></g></g><g class="axis x"><g class="guides"><path class="axis line" d="M14.192308 0.000000 v417.000000"/><text class="" x="14.192307692307693" y="432.0">0</text><title>0</title></g><g class="guides"><path class="guide line" d="M156.399800 0.000000 v417.000000"/><text class="" x="156.3997995991984" y="432.0">100</text><title>100</title></g><g class="guides"><path class="guide line" d="M298.607292 0.000000 v417.000000"/><text class="" x="298.60729150608904" y="432.0">200</text><title>200</title></g><g class="guides"><path class="guide line" d="M440.814783 0.000000 v417.000000"/><text class="" x="440.8147834129798" y="432.0">300</text><title>300</title></g><g class="guides"><path class="guide line" d="M583.022275 0.000000 v417.000000"/><text class="" x="583.0222753198705" y="432.0">400</text><title>400</title></g></g><g class="series serie-0 color-0"><path class="line reactive" d="M14.192308 417.000000 L14.192308 119.054734 15.614383 94.380178 17.036458 94.380178 18.458532 94.380178 19.880607 88.211538 21.302682 88.211538 22.724757 106.717456 24.146832 125.223373 25.568907 125.223373 26.990982 106.717456 28.413057 119.054734 29.835132 131.392012 31.257207 131.392012 32.679282 137.560651 34.101357 137.560651 35.523431 125.223373 36.945506 149.897929 38.367581 143.729290 39.789656 125.223373 41.211731 143.729290 42.633806 143.729290 44.055881 156.066568 45.477956 143.729290 46.900031 143.729290 48.322106 149.897929 49.744181 149.897929 51.166256 143.729290 52.588331 131.392012 54.010405 125.223373 55.432480 125.223373 56.854555 125.223373 58.276630 106.717456 59.698705 125.223373 61.120780 125.223373 62.542855 106.717456 63.964930 125.223373 65.387005 119.054734 66.809080 125.223373 68.231155 143.729290 69.653230 137.560651 71.075304 112.886095 72.497379 119.054734 73.919454 119.054734 75.341529 100.548817 76.763604 88.211538 78.185679 100.548817 79.607754 94.380178 81.029829 88.211538 82.451904 106.717456 83.873979 106.717456 85.296054 94.380178 86.718129 88.211538 88.140203 100.548817 89.562278 106.717456 90.984353 82.042899 92.406428 57.368343 93.828503 63.536982 95.250578 51.199704 96.672653 57.368343 98.094728 82.042899 99.516803 63.536982 100.938878 57.368343 102.360953 69.705621 103.783028 75.874260 105.205103 88.211538 106.627177 112.886095 108.049252 100.548817 109.471327 100.548817 110.893402 112.886095 112.315477 119.054734 113.737552 131.392012 115.159627 137.560651 116.581702 125.223373 118.003777 137.560651 119.425852 137.560651 120.847927 137.560651 122.270002 131.392012 123.692076 125.223373 125.114151 137.560651 126.536226 137.560651 127.958301 143.729290 129.380376 143.729290 130.802451 143.729290 132.224526 149.897929 133.646601 180.741124 135.068676 174.572485 136.490751 180.741124 137.912826 180.741124 139.334901 186.909763 140.756975 180.741124 142.179050 174.572485 143.601125 180.741124 145.023200 180.741124 146.445275 180.741124 147.867350 180.741124 149.289425 186.909763 150.711500 211.584320 152.133575 211.584320 153.555650 211.584320 154.977725 199.247041 156.399800 205.415680 157.821875 199.247041 159.243949 205.415680 160.666024 230.090237 162.088099 236.258876 163.510174 223.921598 164.932249 217.752959 166.354324 211.584320 167.776399 199.247041 169.198474 193.078402 170.620549 205.415680 172.042624 205.415680 173.464699 193.078402 174.886774 180.741124 176.308848 174.572485 177.730923 168.403846 179.152998 156.066568 180.575073 149.897929 181.997148 143.729290 183.419223 162.235207 184.841298 174.572485 186.263373 174.572485 187.685448 162.235207 189.107523 162.235207 190.529598 162.235207 191.951673 168.403846 193.373747 168.403846 194.795822 193.078402 196.217897 193.078402 197.639972 168.403846 199.062047 168.403846 200.484122 156.066568 201.906197 156.066568 203.328272 131.392012 204.750347 137.560651 206.172422 156.066568 207.594497 162.235207 209.016572 174.572485 210.438647 199.247041 211.860721 205.415680 213.282796 211.584320 214.704871 211.584320 216.126946 211.584320 217.549021 217.752959 218.971096 205.415680 220.393171 199.247041 221.815246 193.078402 223.237321 186.909763 224.659396 193.078402 226.081471 193.078402 227.503546 186.909763 228.925620 180.741124 230.347695 186.909763 231.769770 180.741124 233.191845 156.066568 234.613920 137.560651 236.035995 119.054734 237.458070 106.717456 238.880145 94.380178 240.302220 112.886095 241.724295 106.717456 243.146370 106.717456 244.568445 106.717456 245.990520 100.548817 247.412594 75.874260 248.834669 94.380178 250.256744 51.199704 251.678819 69.705621 253.100894 69.705621 254.522969 88.211538 255.945044 100.548817 257.367119 100.548817 258.789194 88.211538 260.211269 82.042899 261.633344 88.211538 263.055419 88.211538 264.477493 112.886095 265.899568 112.886095 267.321643 106.717456 268.743718 119.054734 270.165793 119.054734 271.587868 100.548817 273.009943 119.054734 274.432018 137.560651 275.854093 137.560651 277.276168 125.223373 278.698243 131.392012 280.120318 131.392012 281.542392 137.560651 282.964467 174.572485 284.386542 168.403846 285.808617 162.235207 287.230692 137.560651 288.652767 143.729290 290.074842 137.560651 291.496917 143.729290 292.918992 143.729290 294.341067 149.897929 295.763142 162.235207 297.185217 149.897929 298.607292 162.235207 300.029366 162.235207 301.451441 162.235207 302.873516 162.235207 304.295591 168.403846 305.717666 162.235207 307.139741 162.235207 308.561816 156.066568 309.983891 149.897929 311.405966 143.729290 312.828041 156.066568 314.250116 149.897929 315.672191 162.235207 317.094265 125.223373 318.516340 125.223373 319.938415 125.223373 321.360490 131.392012 322.782565 131.392012 324.204640 119.054734 325.626715 112.886095 327.048790 131.392012 328.470865 125.223373 329.892940 119.054734 331.315015 125.223373 332.737090 125.223373 334.159164 112.886095 335.581239 119.054734 337.003314 94.380178 338.425389 69.705621 339.847464 88.211538 341.269539 88.211538 342.691614 112.886095 344.113689 119.054734 345.535764 143.729290 346.957839 149.897929 348.379914 162.235207 349.801989 168.403846 351.224064 143.729290 352.646138 149.897929 354.068213 149.897929 355.490288 162.235207 356.912363 174.572485 358.334438 168.403846 359.756513 174.572485 361.178588 174.572485 362.600663 186.909763 364.022738 186.909763 365.444813 193.078402 366.866888 193.078402 368.288963 180.741124 369.711037 186.909763 371.133112 186.909763 372.555187 199.247041 373.977262 193.078402 375.399337 180.741124 376.821412 162.235207 378.243487 180.741124 379.665562 180.741124 381.087637 180.741124 382.509712 168.403846 383.931787 168.403846 385.353862 168.403846 386.775936 174.572485 388.198011 180.741124 389.620086 180.741124 391.042161 162.235207 392.464236 168.403846 393.886311 162.235207 395.308386 131.392012 396.730461 125.223373 398.152536 143.729290 399.574611 156.066568 400.996686 174.572485 402.418761 180.741124 403.840836 186.909763 405.262910 180.741124 406.684985 174.572485 408.107060 174.572485 409.529135 174.572485 410.951210 174.572485 412.373285 168.403846 413.795360 162.235207 415.217435 186.909763 416.639510 168.403846 418.061585 162.235207 419.483660 168.403846 420.905735 149.897929 422.327809 149.897929 423.749884 162.235207 425.171959 162.235207 426.594034 180.741124 428.016109 180.741124 429.438184 168.403846 430.860259 149.897929 432.282334 168.403846 433.704409 149.897929 435.126484 156.066568 436.548559 149.897929 437.970634 156.066568 439.392708 149.897929 440.814783 143.729290 442.236858 149.897929 443.658933 168.403846 445.081008 174.572485 446.503083 186.909763 447.925158 193.078402 449.347233 186.909763 450.769308 199.247041 452.191383 199.247041 453.613458 199.247041 455.035533 186.909763 456.457608 186.909763 457.879682 174.572485 459.301757 168.403846 460.723832 174.572485 462.145907 168.403846 463.567982 156.066568 464.990057 143.729290 466.412132 174.572485 467.834207 180.741124 469.256282 174.572485 470.678357 162.235207 472.100432 186.909763 473.522507 174.572485 474.944581 162.235207 476.366656 168.403846 477.788731 186.909763 479.210806 186.909763 480.632881 193.078402 482.054956 217.752959 483.477031 205.415680 484.899106 193.078402 486.321181 186.909763 487.743256 186.909763 489.165331 180.741124 490.587406 186.909763 492.009480 193.078402 493.431555 193.078402 494.853630 205.415680 496.275705 205.415680 497.697780 199.247041 499.119855 230.090237 500.541930 217.752959 501.964005 199.247041 503.386080 193.078402 504.808155 168.403846 506.230230 162.235207 507.652305 137.560651 509.074380 131.392012 510.496454 143.729290 511.918529 137.560651 513.340604 174.572485 514.762679 174.572485 516.184754 162.235207 517.606829 186.909763 519.028904 180.741124 520.450979 180.741124 521.873054 168.403846 523.295129 162.235207 524.717204 162.235207 526.139279 162.235207 527.561353 156.066568 528.983428 162.235207 530.405503 156.066568 531.827578 143.729290 533.249653 156.066568 534.671728 143.729290 536.093803 149.897929 537.515878 137.560651 538.937953 112.886095 540.360028 112.886095 541.782103 112.886095 543.204178 119.054734 544.626253 112.886095 546.048327 94.380178 547.470402 82.042899 548.892477 94.380178 550.314552 100.548817 551.736627 88.211538 553.158702 94.380178 554.580777 112.886095 556.002852 112.886095 557.424927 106.717456 558.847002 119.054734 560.269077 112.886095 561.691152 112.886095 563.113226 143.729290 564.535301 149.897929 565.957376 162.235207 567.379451 156.066568 568.801526 143.729290 570.223601 143.729290 571.645676 162.235207 573.067751 168.403846 574.489826 168.403846 575.911901 168.403846 577.333976 174.572485 578.756051 180.741124 580.178125 180.741124 581.600200 180.741124 583.022275 168.403846 584.444350 174.572485 585.866425 168.403846 587.288500 168.403846 588.710575 162.235207 590.132650 149.897929 591.554725 131.392012 592.976800 137.560651 594.398875 143.729290 595.820950 125.223373 597.243025 112.886095 598.665099 88.211538 600.087174 88.211538 601.509249 82.042899 602.931324 75.874260 604.353399 45.031065 605.775474 45.031065 607.197549 14.187870 608.619624 8.019231 610.041699 14.187870 611.463774 32.693787 612.885849 63.536982 614.307924 88.211538 615.729998 88.211538 617.152073 100.548817 618.574148 106.717456 619.996223 100.548817 621.418298 75.874260 622.840373 57.368343 624.262448 63.536982 625.684523 82.042899 627.106598 82.042899 628.528673 106.717456 629.950748 106.717456 631.372823 119.054734 632.794897 131.392012 634.216972 119.054734 635.639047 125.223373 637.061122 100.548817 638.483197 82.042899 639.905272 100.548817 641.327347 106.717456 642.749422 106.717456 644.171497 112.886095 645.593572 119.054734 647.015647 112.886095 648.437722 106.717456 649.859797 131.392012 651.281871 125.223373 652.703946 125.223373 654.126021 82.042899 655.548096 94.380178 656.970171 94.380178 658.392246 88.211538 659.814321 82.042899 661.236396 82.042899 662.658471 100.548817 664.080546 94.380178 665.502621 94.380178 666.924696 112.886095 668.346770 82.042899 669.768845 82.042899 671.190920 75.874260 672.612995 75.874260 674.035070 82.042899 675.457145 82.042899 676.879220 100.548817 678.301295 112.886095 679.723370 162.235207 681.145445 156.066568 682.567520 162.235207 683.989595 156.066568 685.411669 162.235207 686.833744 156.066568 688.255819 143.729290 689.677894 119.054734 691.099969 94.380178 692.522044 119.054734 693.944119 125.223373 695.366194 106.717456 696.788269 119.054734 698.210344 125.223373 699.632419 131.392012 701.054494 112.886095 702.476569 131.392012 703.898643 137.560651 705.320718 137.560651 706.742793 149.897929 708.164868 143.729290 709.586943 131.392012 711.009018 119.054734 712.431093 137.560651 713.853168 137.560651 715.275243 125.223373 716.697318 125.223373 718.119393 137.560651 719.541468 143.729290 720.963542 143.729290 722.385617 137.560651 723.807692 112.886095 723.807692 417.000000"/></g><g class="series serie-1 color-1"><path class="line reactive" d="M14.192308 417.000000 L14.192308 119.054734 15.614383 125.223373 17.036458 137.560651 18.458532 162.235207 19.880607 168.403846 21.302682 186.909763 22.724757 199.247041 24.146832 205.415680 25.568907 205.415680 26.990982 205.415680 28.413057 217.752959 29.835132 217.752959 31.257207 230.090237 32.679282 254.764793 34.101357 260.933432 35.523431 260.933432 36.945506 267.102071 38.367581 273.270710 39.789656 279.439349 41.211731 297.945266 42.633806 297.945266 44.055881 316.451183 45.477956 322.619822 46.900031 322.619822 48.322106 328.788462 49.744181 328.788462 51.166256 328.788462 52.588331 328.788462 54.010405 328.788462 55.432480 334.957101 56.854555 341.125740 58.276630 341.125740 59.698705 341.125740 61.120780 341.125740 62.542855 341.125740 63.964930 347.294379 65.387005 347.294379 66.809080 347.294379 68.231155 347.294379 69.653230 347.294379 71.075304 347.294379 72.497379 353.463018 73.919454 353.463018 75.341529 353.463018 76.763604 353.463018 78.185679 353.463018 79.607754 353.463018 81.029829 353.463018 82.451904 353.463018 83.873979 353.463018 85.296054 353.463018 86.718129 353.463018 88.140203 353.463018 89.562278 353.463018 90.984353 353.463018 92.406428 353.463018 93.828503 353.463018 95.250578 353.463018 96.672653 353.463018 98.094728 359.631657 99.516803 359.631657 100.938878 359.631657 102.360953 359.631657 103.783028 365.800296 105.205103 365.800296 106.627177 365.800296 108.049252 365.800296 109.471327 365.800296 110.893402 365.800296 112.315477 365.800296 113.737552 365.800296 115.159627 365.800296 116.581702 371.968935 118.003777 371.968935 119.425852 371.968935 120.847927 371.968935 122.270002 371.968935 123.692076 371.968935 125.114151 371.968935 126.536226 371.968935 127.958301 371.968935 129.380376 371.968935 130.802451 371.968935 132.224526 371.968935 133.646601 371.968935 135.068676 371.968935 136.490751 371.968935 137.912826 371.968935 139.334901 371.968935 140.756975 371.968935 142.179050 371.968935 143.601125 371.968935 145.023200 371.968935 146.445275 371.968935 147.867350 371.968935 149.289425 371.968935 150.711500 371.968935 152.133575 371.968935 153.555650 371.968935 154.977725 371.968935 156.399800 371.968935 157.821875 371.968935 159.243949 371.968935 160.666024 371.968935 162.088099 371.968935 163.510174 371.968935 164.932249 371.968935 166.354324 371.968935 167.776399 371.968935 169.198474 371.968935 170.620549 371.968935 172.042624 371.968935 173.464699 371.968935 174.886774 371.968935 176.308848 371.968935 177.730923 371.968935 179.152998 371.968935 180.575073 371.968935 181.997148 371.968935 183.419223 371.968935 184.841298 371.968935 186.263373 371.968935 187.685448 371.968935 189.107523 371.968935 190.529598 371.968935 191.951673 371.968935 193.373747 371.968935 194.795822 371.968935 196.217897 371.968935 197.639972 371.968935 199.062047 371.968935 200.484122 371.968935 201.906197 371.968935 203.328272 371.968935 204.750347 371.968935 206.172422 371.968935 207.594497 371.968935 209.016572 371.968935 210.438647 371.968935 211.860721 371.968935 213.282796 371.968935 214.704871 371.968935 216.126946 371.968935 217.549021 371.968935 218.971096 371.968935 220.393171 371.968935 221.815246 371.968935 223.237321 371.968935 224.659396 371.968935 226.081471 371.968935 227.503546 371.968935 228.925620 371.968935 230.347695 371.968935 231.769770 371.968935 233.191845 378.137574 234.613920 378.137574 236.035995 378.137574 237.458070 378.137574 238.880145 378.137574 240.302220 384.306213 241.724295 384.306213 243.146370 384.306213 244.568445 384.306213 245.990520 384.306213 247.412594 384.306213 248.834669 384.306213 250.256744 384.306213 251.678819 384.306213 253.100894 384.306213 254.522969 384.306213 255.945044 384.306213 257.367119 384.306213 258.789194 384.306213 260.211269 384.306213 261.633344 390.474852 263.055419 390.474852 264.477493 390.474852 265.899568 390.474852 267.321643 390.474852 268.743718 390.474852 270.165793 390.474852 271.587868 390.474852 273.009943 390.474852 274.432018 390.474852 275.854093 390.474852 277.276168 390.474852 278.698243 390.474852 280.120318 390.474852 281.542392 390.474852 282.964467 390.474852 284.386542 390.474852 285.808617 390.474852 287.230692 390.474852 288.652767 390.474852 290.074842 390.474852 291.496917 390.474852 292.918992 390.474852 294.341067 390.474852 295.763142 390.474852 297.185217 390.474852 298.607292 390.474852 300.029366 396.643491 301.451441 396.643491 302.873516 396.643491 304.295591 396.643491 305.717666 396.643491 307.139741 396.643491 308.561816 396.643491 309.983891 396.643491 311.405966 396.643491 312.828041 396.643491 314.250116 402.812130 315.672191 402.812130 317.094265 402.812130 318.516340 402.812130 319.938415 402.812130 321.360490 402.812130 322.782565 402.812130 324.204640 402.812130 325.626715 402.812130 327.048790 402.812130 328.470865 402.812130 329.892940 402.812130 331.315015 402.812130 332.737090 402.812130 334.159164 402.812130 335.581239 402.812130 337.003314 402.812130 338.425389 402.812130 339.847464 402.812130 341.269539 402.812130 342.691614 402.812130 344.113689 402.812130 345.535764 402.812130 346.957839 402.812130 348.379914 402.812130 349.801989 402.812130 351.224064 402.812130 352.646138 402.812130 354.068213 402.812130 355.490288 402.812130 356.912363 402.812130 358.334438 402.812130 359.756513 402.812130 361.178588 402.812130 362.600663 402.812130 364.022738 402.812130 365.444813 408.980769 366.866888 408.980769 368.288963 408.980769 369.711037 408.980769 371.133112 408.980769 372.555187 408.980769 373.977262 408.980769 375.399337 408.980769 376.821412 408.980769 378.243487 408.980769 379.665562 408.980769 381.087637 408.980769 382.509712 408.980769 383.931787 408.980769 385.353862 408.980769 386.775936 408.980769 388.198011 408.980769 389.620086 408.980769 391.042161 408.980769 392.464236 408.980769 393.886311 408.980769 395.308386 408.980769 396.730461 408.980769 398.152536 408.980769 399.574611 408.980769 400.996686 408.980769 402.418761 408.980769 403.840836 408.980769 405.262910 408.980769 406.684985 408.980769 408.107060 408.980769 409.529135 408.980769 410.951210 408.980769 412.373285 408.980769 413.795360 408.980769 415.217435 408.980769 416.639510 408.980769 418.061585 408.980769 419.483660 408.980769 420.905735 408.980769 422.327809 408.980769 423.749884 408.980769 425.171959 408.980769 426.594034 408.980769 428.016109 408.980769 429.438184 408.980769 430.860259 408.980769 432.282334 408.980769 433.704409 408.980769 435.126484 408.980769 436.548559 408.980769 437.970634 408.980769 439.392708 408.980769 440.814783 408.980769 442.236858 408.980769 443.658933 408.980769 445.081008 408.980769 446.503083 408.980769 447.925158 408.980769 449.347233 408.980769 450.769308 408.980769 452.191383 408.980769 453.613458 408.980769 455.035533 408.980769 456.457608 408.980769 457.879682 408.980769 459.301757 408.980769 460.723832 408.980769 462.145907 408.980769 463.567982 408.980769 464.990057 408.980769 466.412132 408.980769 467.834207 408.980769 469.256282 408.980769 470.678357 408.980769 472.100432 408.980769 473.522507 408.980769 474.944581 408.980769 476.366656 408.980769 477.788731 408.980769 479.210806 408.980769 480.632881 408.980769 482.054956 408.980769 483.477031 408.980769 484.899106 408.980769 486.321181 408.980769 487.743256 408.980769 489.165331 408.980769 490.587406 408.980769 492.009480 408.980769 493.431555 408.980769 494.853630 408.980769 496.275705 408.980769 497.697780 408.980769 499.119855 408.980769 500.541930 408.980769 501.964005 408.980769 503.386080 408.980769 504.808155 408.980769 506.230230 408.980769 507.652305 408.980769 509.074380 408.980769 510.496454 408.980769 511.918529 408.980769 513.340604 408.980769 514.762679 408.980769 516.184754 408.980769 517.606829 408.980769 519.028904 408.980769 520.450979 408.980769 521.873054 408.980769 523.295129 408.980769 524.717204 408.980769 526.139279 408.980769 527.561353 408.980769 528.983428 408.980769 530.405503 408.980769 531.827578 408.980769 533.249653 408.980769 534.671728 408.980769 536.093803 408.980769 537.515878 408.980769 538.937953 408.980769 540.360028 408.980769 541.782103 408.980769 543.204178 408.980769 544.626253 408.980769 546.048327 408.980769 547.470402 408.980769 548.892477 408.980769 550.314552 408.980769 551.736627 408.980769 553.158702 408.980769 554.580777 408.980769 556.002852 408.980769 557.424927 408.980769 558.847002 408.980769 560.269077 408.980769 561.691152 408.980769 563.113226 408.980769 564.535301 408.980769 565.957376 408.980769 567.379451 408.980769 568.801526 408.980769 570.223601 408.980769 571.645676 408.980769 573.067751 408.980769 574.489826 408.980769 575.911901 408.980769 577.333976 408.980769 578.756051 408.980769 580.178125 408.980769 581.600200 408.980769 583.022275 408.980769 584.444350 408.980769 585.866425 408.980769 587.288500 408.980769 588.710575 408.980769 590.132650 408.980769 591.554725 408.980769 592.976800 408.980769 594.398875 408.980769 595.820950 408.980769 597.243025 408.980769 598.665099 408.980769 600.087174 408.980769 601.509249 408.980769 602.931324 408.980769 604.353399 408.980769 605.775474 408.980769 607.197549 408.980769 608.619624 408.980769 610.041699 408.980769 611.463774 408.980769 612.885849 408.980769 614.307924 408.980769 615.729998 408.980769 617.152073 408.980769 618.574148 408.980769 619.996223 408.980769 621.418298 408.980769 622.840373 408.980769 624.262448 408.980769 625.684523 408.980769 627.106598 408.980769 628.528673 408.980769 629.950748 408.980769 631.372823 408.980769 632.794897 408.980769 634.216972 408.980769 635.639047 408.980769 637.061122 408.980769 638.483197 408.980769 639.905272 408.980769 641.327347 408.980769 642.749422 408.980769 644.171497 408.980769 645.593572 408.980769 647.015647 408.980769 648.437722 408.980769 649.859797 408.980769 651.281871 408.980769 652.703946 408.980769 654.126021 408.980769 655.548096 408.980769 656.970171 408.980769 658.392246 408.980769 659.814321 408.980769 661.236396 408.980769 662.658471 408.980769 664.080546 408.980769 665.502621 408.980769 666.924696 408.980769 668.346770 408.980769 669.768845 408.980769 671.190920 408.980769 672.612995 408.980769 674.035070 408.980769 675.457145 408.980769 676.879220 408.980769 678.301295 408.980769 679.723370 408.980769 681.145445 408.980769 682.567520 408.980769 683.989595 408.980769 685.411669 408.980769 686.833744 408.980769 688.255819 408.980769 689.677894 408.980769 691.099969 408.980769 692.522044 408.980769 693.944119 408.980769 695.366194 408.980769 696.788269 408.980769 698.210344 408.980769 699.632419 408.980769 701.054494 408.980769 702.476569 408.980769 703.898643 408.980769 705.320718 408.980769 706.742793 408.980769 708.164868 408.980769 709.586943 408.980769 711.009018 408.980769 712.431093 408.980769 713.853168 408.980769 715.275243 408.980769 716.697318 408.980769 718.119393 408.980769 719.541468 408.980769 720.963542 408.980769 722.385617 408.980769 723.807692 408.980769 723.807692 417.000000"/></g></g><g class="titles"><text class="title plot_title" x="400.0" y="26">Genome diversity in population with asexual reproduction over 499</text><text class="title plot_title" x="400.0" y="52">generations.</text><text class="title plot_title" x="400.0" y="78"> Quantity of original genes from the first generation in population </text></g><g class="plot overlay" transform="translate(42, 98)"><g class="series serie-0 color-0"/><g class="series serie-1 color-1"/></g><g class="plot text-overlay" transform="translate(42, 98)"><g class="series serie-0 color-0"/><g class="series serie-1 color-1"/></g><g class="plot tooltip-overlay" transform="translate(42, 98)"><g class="tooltip" style="opacity: 0" transform="translate(0 0)"><rect class="tooltip-box" height="0" rx="0" ry="0" width="0"/><g class="text"/></g></g><g class="legends" transform="translate(52, 545)"><g class="legend reactive activate-serie" id="activate-serie-0"><rect class="color-0 reactive" height="12" width="12" x="0.0" y="1.0"/><text x="17.0" y="11.2">Population size</text></g><g class="legend reactive activate-serie" id="activate-serie-1"><rect class="color-1 reactive" height="12" width="12" x="369.0" y="1.0"/><text x="386.0" y="11.2">Diversity</text></g></g></g></svg>