<?xml version='1.0' encoding='utf-8'?>
<svg xmlns:xlink="http://www.w3.org/1999/xlink" xmlns="http://www.w3.org/2000/svg" id="chart-b0f1923f-accc-4600-8d78-1f32a5ad8a2e" class="pygal-chart" viewBox="0 0 800 600"><!--Generated with pygal 2.4.0 (lxml) ©Kozea 2012-2016 on 2019-01-09--><!--http://pygal.org--><!--http://github.com/Kozea/pygal--><defs><style type="text/css">#chart-b0f1923f-accc-4600-8d78-1f32a5ad8a2e{-webkit-user-select:none;-webkit-font-smoothing:antialiased;font-family:Consolas,"Liberation Mono",Menlo,Courier,monospace}#chart-b0f1923f-accc-4600-8d78-1f32a5ad8a2e .title{font-family:Consolas,"Liberation Mono",Menlo,Courier,monospace;font-size:16px}#chart-b0f1923f-accc-4600-8d78-1f32a5ad8a2e .legends .legend text{font-family:Consolas,"Liberation Mono",Menlo,Courier,monospace;font-size:14px}#chart-b0f1923f-accc-4600-8d78-1f32a5ad8a2e .axis text{font-family:Consolas,"Liberation Mono",Menlo,Courier,monospace;font-size:10px}#chart-b0f1923f-accc-4600-8d78-1f32a5ad8a2e .axis text.major{font-family:Consolas,"Liberation Mono",Menlo,Courier,monospace;font-size:10px}#chart-b0f1923f-accc-4600-8d78-1f32a5ad8a2e .text-overlay text.value{font-family:Consolas,"Liberation Mono",Menlo,Courier,monospace;font-size:16px}#chart-b0f1923f-accc-4600-8d78-1f32a5ad8a2e .text-overlay text.label{font-family:Consolas,"Liberation Mono",Menlo,Courier,monospace;font-size:10px}#chart-b0f1923f-accc-4600-8d78-1f32a5ad8a2e .tooltip{font-family:Consolas,"Liberation Mono",Menlo,Courier,monospace;font-size:14px}#chart-b0f1923f-accc-4600-8d78-1f32a5ad8a2e text.no_data{font-family:Consolas,"Liberation Mono",Menlo,Courier,monospace;font-size:64px}
#chart-b0f1923f-accc-4600-8d78-1f32a5ad8a2e{background-color:black}#chart-b0f1923f-accc-4600-8d78-1f32a5ad8a2e path,#chart-b0f1923f-accc-4600-8d78-1f32a5ad8a2e line,#chart-b0f1923f-accc-4600-8d78-1f32a5ad8a2e rect,#chart-b0f1923f-accc-4600-8d78-1f32a5ad8a2e circle{-webkit-transition:250ms;-moz-transition:250ms;transition:250ms}#chart-b0f1923f-accc-4600-8d78-1f32a5ad8a2e .graph &gt; .background{fill:black}#chart-b0f1923f-accc-4600-8d78-1f32a5ad8a2e .plot &gt; .background{fill:#111}#chart-b0f1923f-accc-4600-8d78-1f32a5ad8a2e .graph{fill:#999}#chart-b0f1923f-accc-4600-8d78-1f32a5ad8a2e text.no_data{fill:#eee}#chart-b0f1923f-accc-4600-8d78-1f32a5ad8a2e .title{fill:#eee}#chart-b0f1923f-accc-4600-8d78-1f32a5ad8a2e .legends .legend text{fill:#999}#chart-b0f1923f-accc-4600-8d78-1f32a5ad8a2e .legends .legend:hover text{fill:#eee}#chart-b0f1923f-accc-4600-8d78-1f32a5ad8a2e .axis .line{stroke:#eee}#chart-b0f1923f-accc-4600-8d78-1f32a5ad8a2e .axis .guide.line{stroke:#555}#chart-b0f1923f-accc-4600-8d78-1f32a5ad8a2e .axis .major.line{stroke:#999}#chart-b0f1923f-accc-4600-8d78-1f32a5ad8a2e .axis text.major{fill:#eee}#chart-b0f1923f-accc-4600-8d78-1f32a5ad8a2e .axis.y .guides:hover .guide.line,#chart-b0f1923f-accc-4600-8d78-1f32a5ad8a2e .line-graph .axis.x .guides:hover .guide.line,#chart-b0f1923f-accc-4600-8d78-1f32a5ad8a2e .stackedline-graph .axis.x .guides:hover .guide.line,#chart-b0f1923f-accc-4600-8d78-1f32a5ad8a2e .xy-graph .axis.x .guides:hover .guide.line{stroke:#eee}#chart-b0f1923f-accc-4600-8d78-1f32a5ad8a2e .axis .guides:hover text{fill:#eee}#chart-b0f1923f-accc-4600-8d78-1f32a5ad8a2e .reactive{fill-opacity:.8;stroke-opacity:.8}#chart-b0f1923f-accc-4600-8d78-1f32a5ad8a2e .ci{stroke:#999}#chart-b0f1923f-accc-4600-8d78-1f32a5ad8a2e .reactive.active,#chart-b0f1923f-accc-4600-8d78-1f32a5ad8a2e .active .reactive{fill-opacity:.4;stroke-opacity:.9;stroke-width:4}#chart-b0f1923f-accc-4600-8d78-1f32a5ad8a2e .ci .reactive.active{stroke-width:1.5}#chart-b0f1923f-accc-4600-8d78-1f32a5ad8a2e .series text{fill:#eee}#chart-b0f1923f-accc-4600-8d78-1f32a5ad8a2e .tooltip rect{fill:#111;stroke:#eee;-webkit-transition:opacity 250ms;-moz-transition:opacity 250ms;transition:opacity 250ms}#chart-b0f1923f-accc-4600-8d78-1f32a5ad8a2e .tooltip .label{fill:#999}#chart-b0f1923f-accc-4600-8d78-1f32a5ad8a2e .tooltip .label{fill:#999}#chart-b0f1923f-accc-4600-8d78-1f32a5ad8a2e .tooltip .legend{font-size:.8em;fill:#555}#chart-b0f1923f-accc-4600-8d78-1f32a5ad8a2e .tooltip .x_label{font-size:.6em;fill:#eee}#chart-b0f1923f-accc-4600-8d78-1f32a5ad8a2e .tooltip .xlink{font-size:.5em;text-decoration:underline}#chart-b0f1923f-accc-4600-8d78-1f32a5ad8a2e .tooltip .value{font-size:1.5em}#chart-b0f1923f-accc-4600-8d78-1f32a5ad8a2e .bound{font-size:.5em}#chart-b0f1923f-accc-4600-8d78-1f32a5ad8a2e .max-value{font-size:.75em;fill:#555}#chart-b0f1923f-accc-4600-8d78-1f32a5ad8a2e .map-element{fill:#111;stroke:#555 !important}#chart-b0f1923f-accc-4600-8d78-1f32a5ad8a2e .map-element .reactive{fill-opacity:inherit;stroke-opacity:inherit}#chart-b0f1923f-accc-4600-8d78-1f32a5ad8a2e .color-0,#chart-b0f1923f-accc-4600-8d78-1f32a5ad8a2e .color-0 a:visited{stroke:#ff5995;fill:#ff5995}#chart-b0f1923f-accc-4600-8d78-1f32a5ad8a2e .text-overlay .color-0 text{fill:black}
#chart-b0f1923f-accc-4600-8d78-1f32a5ad8a2e text.no_data{text-anchor:middle}#chart-b0f1923f-accc-4600-8d78-1f32a5ad8a2e .guide.line{fill:none}#chart-b0f1923f-accc-4600-8d78-1f32a5ad8a2e .centered{text-anchor:middle}#chart-b0f1923f-accc-4600-8d78-1f32a5ad8a2e .title{text-anchor:middle}#chart-b0f1923f-accc-4600-8d78-1f32a5ad8a2e .legends .legend text{fill-opacity:1}#chart-b0f1923f-accc-4600-8d78-1f32a5ad8a2e .axis.x text{text-anchor:middle}#chart-b0f1923f-accc-4600-8d78-1f32a5ad8a2e .axis.x:not(.web) text[transform]{text-anchor:start}#chart-b0f1923f-accc-4600-8d78-1f32a5ad8a2e .axis.x:not(.web) text[transform].backwards{text-anchor:end}#chart-b0f1923f-accc-4600-8d78-1f32a5ad8a2e .axis.y text{text-anchor:end}#chart-b0f1923f-accc-4600-8d78-1f32a5ad8a2e .axis.y text[transform].backwards{text-anchor:start}#chart-b0f1923f-accc-4600-8d78-1f32a5ad8a2e .axis.y2 text{text-anchor:start}#chart-b0f1923f-accc-4600-8d78-1f32a5ad8a2e .axis.y2 text[transform].backwards{text-anchor:end}#chart-b0f1923f-accc-4600-8d78-1f32a5ad8a2e .axis .guide.line{stroke-dasharray:4,4}#chart-b0f1923f-accc-4600-8d78-1f32a5ad8a2e .axis .major.guide.line{stroke-dasharray:6,6}#chart-b0f1923f-accc-4600-8d78-1f32a5ad8a2e .horizontal .axis.y .guide.line,#chart-b0f1923f-accc-4600-8d78-1f32a5ad8a2e .horizontal .axis.y2 .guide.line,#chart-b0f1923f-accc-4600-8d78-1f32a5ad8a2e .vertical .axis.x .guide.line{opacity:0}#chart-b0f1923f-accc-4600-8d78-1f32a5ad8a2e .horizontal .axis.always_show .guide.line,#chart-b0f1923f-accc-4600-8d78-1f32a5ad8a2e .vertical .axis.always_show .guide.line{opacity:1 !important}#chart-b0f1923f-accc-4600-8d78-1f32a5ad8a2e .axis.y .guides:hover .guide.line,#chart-b0f1923f-accc-4600-8d78-1f32a5ad8a2e .axis.y2 .guides:hover .guide.line,#chart-b0f1923f-accc-4600-8d78-1f32a5ad8a2e .axis.x .guides:hover .guide.line{opacity:1}#chart-b0f1923f-accc-4600-8d78-1f32a5ad8a2e .axis .guides:hover text{opacity:1}#chart-b0f1923f-accc-4600-8d78-1f32a5ad8a2e .nofill{fill:none}#chart-b0f1923f-accc-4600-8d78-1f32a5ad8a2e .subtle-fill{fill-opacity:.2}#chart-b0f1923f-accc-4600-8d78-1f32a5ad8a2e .dot{stroke-width:1px;fill-opacity:1}#chart-b0f1923f-accc-4600-8d78-1f32a5ad8a2e .dot.active{stroke-width:5px}#chart-b0f1923f-accc-4600-8d78-1f32a5ad8a2e .dot.negative{fill:transparent}#chart-b0f1923f-accc-4600-8d78-1f32a5ad8a2e text,#chart-b0f1923f-accc-4600-8d78-1f32a5ad8a2e tspan{stroke:none !important}#chart-b0f1923f-accc-4600-8d78-1f32a5ad8a2e .series text.active{opacity:1}#chart-b0f1923f-accc-4600-8d78-1f32a5ad8a2e .tooltip rect{fill-opacity:.95;stroke-width:.5}#chart-b0f1923f-accc-4600-8d78-1f32a5ad8a2e .tooltip text{fill-opacity:1}#chart-b0f1923f-accc-4600-8d78-1f32a5ad8a2e .showable{visibility:hidden}#chart-b0f1923f-accc-4600-8d78-1f32a5ad8a2e .showable.shown{visibility:visible}#chart-b0f1923f-accc-4600-8d78-1f32a5ad8a2e .gauge-background{fill:rgba(229,229,229,1);stroke:none}#chart-b0f1923f-accc-4600-8d78-1f32a5ad8a2e .bg-lines{stroke:black;stroke-width:2px}</style><script type="text/javascript">window.pygal = window.pygal || {};window.pygal.config = window.pygal.config || {};window.pygal.config['b0f1923f-accc-4600-8d78-1f32a5ad8a2e'] = {"allow_interruptions": false, "box_mode": "extremes", "classes": ["pygal-chart"], "css": ["file://style.css", "file://graph.css"], "defs": [], "disable_xml_declaration": false, "dots_size": 2.5, "dynamic_print_values": false, "explicit_size": false, "fill": true, "force_uri_protocol": "https", "formatter": null, "half_pie": false, "height": 600, "include_x_axis": true, "inner_radius": 0, "interpolate": null, "interpolation_parameters": {}, "interpolation_precision": 250, "inverse_y_axis": false, "js": ["//kozea.github.io/pygal.js/2.0.x/pygal-tooltips.min.js"], "legend_at_bottom": true, "legend_at_bottom_columns": null, "legend_box_size": 12, "logarithmic": false, "margin": 20, "margin_bottom": null, "margin_left": null, "margin_right": null, "margin_top": null, "max_scale": 16, "min_scale": 4, "missing_value_fill_truncation": "x", "no_data_text": "No data", "no_prefix": false, "order_min": null, "pretty_print": false, "print_labels": false, "print_values": false, "print_values_position": "center", "print_zeroes": true, "range": null, "rounded_bars": null, "secondary_range": null, "show_dots": false, "show_legend": true, "show_minor_x_labels": true, "show_minor_y_labels": true, "show_only_major_dots": false, "show_x_guides": false, "show_x_labels": true, "show_y_guides": true, "show_y_labels": true, "spacing": 10, "stack_from_top": false, "strict": false, "stroke": true, "stroke_style": null, "style": {"background": "black", "ci_colors": [], "colors": ["#ff5995", "#b6e354", "#feed6c", "#8cedff", "#9e6ffe", "#899ca1", "#f8f8f2", "#bf4646", "#516083", "#f92672", "#82b414", "#fd971f", "#56c2d6", "#808384", "#8c54fe", "#465457"], "font_family": "Consolas, \"Liberation Mono\", Menlo, Courier, monospace", "foreground": "#999", "foreground_strong": "#eee", "foreground_subtle": "#555", "guide_stroke_dasharray": "4,4", "label_font_family": "Consolas, \"Liberation Mono\", Menlo, Courier, monospace", "label_font_size": 10, "legend_font_family": "Consolas, \"Liberation Mono\", Menlo, Courier, monospace", "legend_font_size": 14, "major_guide_stroke_dasharray": "6,6", "major_label_font_family": "Consolas, \"Liberation Mono\", Menlo, Courier, monospace", "major_label_font_size": 10, "no_data_font_family": "Consolas, \"Liberation Mono\", Menlo, Courier, monospace", "no_data_font_size": 64, "opacity": ".8", "opacity_hover": ".4", "plot_background": "#111", "stroke_opacity": ".8", "stroke_opacity_hover": ".9", "title_font_family": "Consolas, \"Liberation Mono\", Menlo, Courier, monospace", "title_font_size": 16, "tooltip_font_family": "Consolas, \"Liberation Mono\", Menlo, Courier, monospace", "tooltip_font_size": 14, "transition": "250ms", "value_background": "rgba(229, 229, 229, 1)", "value_colors": [], "value_font_family": "Consolas, \"Liberation Mono\", Menlo, Courier, monospace", "value_font_size": 16, "value_label_font_family": "Consolas, \"Liberation Mono\", Menlo, Courier, monospace", "value_label_font_size": 10}, "title": "Population size over  250 generations.", "tooltip_border_radius": 0, "tooltip_fancy_mode": true, "truncate_label": null, "truncate_legend": null, "width": 800, "x_label_rotation": 0, "x_labels": null, "x_labels_major": null, "x_labels_major_count": null, "x_labels_major_every": null, "x_title": null, "xrange": null, "y_label_rotation": 0, "y_labels": null, "y_labels_major": null, "y_labels_major_count": null, "y_labels_major_every": null, "y_title": null, "zero": 0, "legends": ["Population size"]}</script><script type="text/javascript" xlink:href="https://kozea.github.io/pygal.js/2.0.x/pygal-tooltips.min.js"/></defs><title>Population size over  250 generations.</title><g class="graph xy-graph vertical"><rect class="background" height="600" width="800" x="0" y="0"/><g class="plot" transform="translate(42, 46)"><rect class="background" height="490.0" width="738.0" x="0" y="0"/><g class="axis y always_show"><g class="guides"><path class="axis major line" d="M0.000000 480.576923 h738.000000"/><text class="major" x="-5" y="484.0769230769231">0</text><title>0</title></g><g class="guides"><path class="guide line" d="M0.000000 400.720339 h738.000000"/><text class="" x="-5" y="404.22033898305085">10</text><title>10</title></g><g class="guides"><path class="guide line" d="M0.000000 320.863755 h738.000000"/><text class="" x="-5" y="324.3637548891786">20</text><title>20</title></g><g class="guides"><path class="guide line" d="M0.000000 241.007171 h738.000000"/><text class="" x="-5" y="244.50717079530637">30</text><title>30</title></g><g class="guides"><path class="guide line" d="M0.000000 161.150587 h738.000000"/><text class="" x="-5" y="164.65058670143412">40</text><title>40</title></g><g class="guides"><path class="major guide line" d="M0.000000 81.294003 h738.000000"/><text class="major" x="-5" y="84.79400260756194">50</text><title>50</title></g></g><g class="axis x"><g class="guides"><path class="axis line" d="M14.192308 0.000000 v490.000000"/><text class="" x="14.192307692307695" y="505.0">0</text><title>0</title></g><g class="guides"><path class="guide line" d="M71.189527 0.000000 v490.000000"/><text class="" x="71.18952734012976" y="505.0">20</text><title>20</title></g><g class="guides"><path class="guide line" d="M128.186747 0.000000 v490.000000"/><text class="" x="128.18674698795184" y="505.0">40</text><title>40</title></g><g class="guides"><path class="guide line" d="M185.183967 0.000000 v490.000000"/><text class="" x="185.1839666357739" y="505.0">60</text><title>60</title></g><g class="guides"><path class="guide line" d="M242.181186 0.000000 v490.000000"/><text class="" x="242.18118628359596" y="505.0">80</text><title>80</title></g><g class="guides"><path class="guide line" d="M299.178406 0.000000 v490.000000"/><text class="" x="299.178405931418" y="505.0">100</text><title>100</title></g><g class="guides"><path class="guide line" d="M356.175626 0.000000 v490.000000"/><text class="" x="356.1756255792401" y="505.0">120</text><title>120</title></g><g class="guides"><path class="guide line" d="M413.172845 0.000000 v490.000000"/><text class="" x="413.1728452270621" y="505.0">140</text><title>140</title></g><g class="guides"><path class="guide line" d="M470.170065 0.000000 v490.000000"/><text class="" x="470.17006487488413" y="505.0">160</text><title>160</title></g><g class="guides"><path class="guide line" d="M527.167285 0.000000 v490.000000"/><text class="" x="527.1672845227063" y="505.0">180</text><title>180</title></g><g class="guides"><path class="guide line" d="M584.164504 0.000000 v490.000000"/><text class="" x="584.1645041705283" y="505.0">200</text><title>200</title></g><g class="guides"><path class="guide line" d="M641.161724 0.000000 v490.000000"/><text class="" x="641.1617238183503" y="505.0">220</text><title>220</title></g><g class="guides"><path class="guide line" d="M698.158943 0.000000 v490.000000"/><text class="" x="698.1589434661724" y="505.0">240</text><title>240</title></g></g><g class="series serie-0 color-0"><path class="line reactive" d="M14.192308 480.576923 L14.192308 81.294003 17.042169 73.308344 19.892030 57.337027 22.741891 33.380052 25.591752 25.394394 28.441613 9.423077 31.291474 41.365711 34.141335 9.423077 36.991196 57.337027 39.841057 65.322686 42.690918 57.337027 45.540778 89.279661 48.390639 105.250978 51.240500 89.279661 54.090361 97.265319 56.940222 97.265319 59.790083 113.236636 62.639944 121.222295 65.489805 113.236636 68.339666 89.279661 71.189527 121.222295 74.039388 121.222295 76.889249 89.279661 79.739110 89.279661 82.588971 97.265319 85.438832 57.337027 88.288693 89.279661 91.138554 65.322686 93.988415 89.279661 96.838276 81.294003 99.688137 89.279661 102.537998 73.308344 105.387859 65.322686 108.237720 81.294003 111.087581 97.265319 113.937442 105.250978 116.787303 97.265319 119.637164 89.279661 122.487025 105.250978 125.336886 89.279661 128.186747 97.265319 131.036608 65.322686 133.886469 41.365711 136.736330 41.365711 139.586191 17.408735 142.436052 41.365711 145.285913 49.351369 148.135774 57.337027 150.985635 41.365711 153.835496 65.322686 156.685357 57.337027 159.535218 41.365711 162.385079 65.322686 165.234940 57.337027 168.084801 65.322686 170.934662 89.279661 173.784523 65.322686 176.634384 65.322686 179.484245 49.351369 182.334106 65.322686 185.183967 57.337027 188.033828 57.337027 190.883689 25.394394 193.733550 41.365711 196.583411 41.365711 199.433272 57.337027 202.283133 57.337027 205.132994 33.380052 207.982854 41.365711 210.832715 65.322686 213.682576 81.294003 216.532437 121.222295 219.382298 137.193611 222.232159 153.164928 225.082020 145.179270 227.931881 129.207953 230.781742 113.236636 233.631603 169.136245 236.481464 193.093220 239.331325 185.107562 242.181186 209.064537 245.031047 193.093220 247.880908 193.093220 250.730769 217.050196 253.580630 225.035854 256.430491 209.064537 259.280352 201.078879 262.130213 185.107562 264.980074 153.164928 267.829935 129.207953 270.679796 145.179270 273.529657 121.222295 276.379518 129.207953 279.229379 137.193611 282.079240 137.193611 284.929101 129.207953 287.778962 121.222295 290.628823 129.207953 293.478684 113.236636 296.328545 129.207953 299.178406 137.193611 302.028267 161.150587 304.878128 177.121904 307.727989 153.164928 310.577850 145.179270 313.427711 161.150587 316.277572 161.150587 319.127433 185.107562 321.977294 177.121904 324.827155 161.150587 327.677016 153.164928 330.526877 113.236636 333.376738 113.236636 336.226599 129.207953 339.076460 145.179270 341.926321 129.207953 344.776182 145.179270 347.626043 161.150587 350.475904 137.193611 353.325765 153.164928 356.175626 137.193611 359.025487 121.222295 361.875348 145.179270 364.725209 169.136245 367.575070 185.107562 370.424930 177.121904 373.274791 153.164928 376.124652 145.179270 378.974513 121.222295 381.824374 113.236636 384.674235 121.222295 387.524096 153.164928 390.373957 161.150587 393.223818 169.136245 396.073679 161.150587 398.923540 177.121904 401.773401 169.136245 404.623262 177.121904 407.473123 185.107562 410.322984 177.121904 413.172845 193.093220 416.022706 193.093220 418.872567 217.050196 421.722428 201.078879 424.572289 193.093220 427.422150 193.093220 430.272011 201.078879 433.121872 193.093220 435.971733 209.064537 438.821594 201.078879 441.671455 201.078879 444.521316 177.121904 447.371177 161.150587 450.221038 161.150587 453.070899 161.150587 455.920760 153.164928 458.770621 145.179270 461.620482 121.222295 464.470343 89.279661 467.320204 89.279661 470.170065 89.279661 473.019926 105.250978 475.869787 89.279661 478.719648 97.265319 481.569509 73.308344 484.419370 65.322686 487.269231 65.322686 490.119092 65.322686 492.968953 57.337027 495.818814 49.351369 498.668675 41.365711 501.518536 49.351369 504.368397 49.351369 507.218258 65.322686 510.068119 89.279661 512.917980 89.279661 515.767841 81.294003 518.617702 97.265319 521.467563 97.265319 524.317424 97.265319 527.167285 89.279661 530.017146 73.308344 532.867006 97.265319 535.716867 89.279661 538.566728 89.279661 541.416589 105.250978 544.266450 89.279661 547.116311 73.308344 549.966172 73.308344 552.816033 81.294003 555.665894 57.337027 558.515755 73.308344 561.365616 57.337027 564.215477 57.337027 567.065338 33.380052 569.915199 57.337027 572.765060 73.308344 575.614921 97.265319 578.464782 97.265319 581.314643 113.236636 584.164504 113.236636 587.014365 153.164928 589.864226 169.136245 592.714087 145.179270 595.563948 153.164928 598.413809 145.179270 601.263670 169.136245 604.113531 169.136245 606.963392 153.164928 609.813253 161.150587 612.663114 169.136245 615.512975 177.121904 618.362836 161.150587 621.212697 161.150587 624.062558 161.150587 626.912419 161.150587 629.762280 169.136245 632.612141 161.150587 635.462002 161.150587 638.311863 185.107562 641.161724 193.093220 644.011585 193.093220 646.861446 201.078879 649.711307 193.093220 652.561168 177.121904 655.411029 177.121904 658.260890 177.121904 661.110751 177.121904 663.960612 185.107562 666.810473 193.093220 669.660334 225.035854 672.510195 209.064537 675.360056 233.021512 678.209917 233.021512 681.059778 241.007171 683.909639 217.050196 686.759500 225.035854 689.609361 201.078879 692.459222 201.078879 695.309082 193.093220 698.158943 169.136245 701.008804 161.150587 703.858665 145.179270 706.708526 161.150587 709.558387 169.136245 712.408248 177.121904 715.258109 177.121904 718.107970 169.136245 720.957831 145.179270 723.807692 137.193611 723.807692 480.576923"/></g></g><g class="titles"><text class="title plot_title" x="400.0" y="26">Population size over  250 generations.</text></g><g class="plot overlay" transform="translate(42, 46)"><g class="series serie-0 color-0"/></g><g class="plot text-overlay" transform="translate(42, 46)"><g class="series serie-0 color-0"/></g><g class="plot tooltip-overlay" transform="translate(42, 46)"><g class="tooltip" style="opacity: 0" transform="translate(0 0)"><rect class="tooltip-box" height="0" rx="0" ry="0" width="0"/><g class="text"/></g></g><g class="legends" transform="translate(52, 566)"><g class="legend reactive activate-serie" id="activate-serie-0"><rect class="color-0 reactive" height="12" width="12" x="0.0" y="1.0"/><text x="17.0" y="11.2">Population size</text></g></g></g></svg>